<?xml version="1.0" encoding="UTF-8"?>
<svg xmlns="http://www.w3.org/2000/svg" width="1156.32" height="650.43" viewBox="0,0,1156.32,650.43">
<desc>R SVG Plot!</desc>
<rect width="100%" height="100%" style="fill:#FFFFFF"/>
<polyline points="75.08 , 586.68 1097.91 , 55.42 " style="stroke-width:1;stroke:#FF0000;fill:#000000;stroke-opacity:1.000000;fill-opacity:0.000000"/>
<line x1="75.08" y1="607.93" x2="915.76" y2="607.93" style="stroke-width:1;stroke:#000000;fill:#000000;stroke-opacity:1.000000;fill-opacity:0.000000"/>
<line x1="75.08" y1="607.93" x2="75.08" y2="612.10" style="stroke-width:1;stroke:#000000;fill:#000000;stroke-opacity:1.000000;fill-opacity:0.000000"/>
<line x1="355.31" y1="607.93" x2="355.31" y2="612.10" style="stroke-width:1;stroke:#000000;fill:#000000;stroke-opacity:1.000000;fill-opacity:0.000000"/>
<line x1="635.53" y1="607.93" x2="635.53" y2="612.10" style="stroke-width:1;stroke:#000000;fill:#000000;stroke-opacity:1.000000;fill-opacity:0.000000"/>
<line x1="915.76" y1="607.93" x2="915.76" y2="612.10" style="stroke-width:1;stroke:#000000;fill:#000000;stroke-opacity:1.000000;fill-opacity:0.000000"/>
<text transform="translate(72.58,624.60)"  style="font-size:10" >0</text>
<text transform="translate(347.06,624.60)"  style="font-size:10" >100</text>
<text transform="translate(627.28,624.60)"  style="font-size:10" >200</text>
<text transform="translate(907.51,624.60)"  style="font-size:10" >300</text>
<line x1="34.17" y1="586.68" x2="34.17" y2="42.28" style="stroke-width:1;stroke:#000000;fill:#000000;stroke-opacity:1.000000;fill-opacity:0.000000"/>
<line x1="34.17" y1="586.68" x2="30.00" y2="586.68" style="stroke-width:1;stroke:#000000;fill:#000000;stroke-opacity:1.000000;fill-opacity:0.000000"/>
<line x1="34.17" y1="477.80" x2="30.00" y2="477.80" style="stroke-width:1;stroke:#000000;fill:#000000;stroke-opacity:1.000000;fill-opacity:0.000000"/>
<line x1="34.17" y1="368.92" x2="30.00" y2="368.92" style="stroke-width:1;stroke:#000000;fill:#000000;stroke-opacity:1.000000;fill-opacity:0.000000"/>
<line x1="34.17" y1="260.04" x2="30.00" y2="260.04" style="stroke-width:1;stroke:#000000;fill:#000000;stroke-opacity:1.000000;fill-opacity:0.000000"/>
<line x1="34.17" y1="151.16" x2="30.00" y2="151.16" style="stroke-width:1;stroke:#000000;fill:#000000;stroke-opacity:1.000000;fill-opacity:0.000000"/>
<line x1="34.17" y1="42.28" x2="30.00" y2="42.28" style="stroke-width:1;stroke:#000000;fill:#000000;stroke-opacity:1.000000;fill-opacity:0.000000"/>
<text transform="translate(25.83,589.43) rotate(-90)"  style="font-size:10" >0</text>
<text transform="translate(25.83,491.55) rotate(-90)"  style="font-size:10" >10000</text>
<text transform="translate(25.83,382.67) rotate(-90)"  style="font-size:10" >20000</text>
<text transform="translate(25.83,273.79) rotate(-90)"  style="font-size:10" >30000</text>
<text transform="translate(25.83,164.91) rotate(-90)"  style="font-size:10" >40000</text>
<text transform="translate(25.83,56.03) rotate(-90)"  style="font-size:10" >50000</text>
<polyline points="34.17 , 607.93 1138.82 , 607.93 1138.82 , 34.17 34.17 , 34.17 34.17 , 607.93 " style="stroke-width:1;stroke:#000000;fill:#000000;stroke-opacity:1.000000;fill-opacity:0.000000"/>
<text transform="translate(574.66,641.26)"  style="font-size:10" >Time</text>
<text transform="translate(9.17,349.52) rotate(-90)"  style="font-size:10" >cost ($USD)</text>
<text transform="translate(438.48,17.08)"  style="font-size:12" >Utilization: light Region: apac-sin Instance: hs1.8xlarge</text>
<text transform="translate(437.88,27.08)"  style="font-size:12" >year1 term is cheaper than on-demand after 96 days of usage</text>
<text transform="translate(192.97,582.45)"  style="font-size:10" >on-demand=$5.57/hour</text>
<line x1="34.17" y1="543.37" x2="1138.82" y2="200.55" style="stroke-width:1;stroke:#00FF00;fill:#000000;stroke-opacity:1.000000;fill-opacity:0.000000"/>
<text transform="translate(174.95,526.50)"  style="font-size:10" >Reserved=$5144+$3.33/hour</text>
<circle cx="342.97" cy="447.53" r="2.34" style="stroke-width:1;stroke:#000000;fill:#FFFFFF;stroke-opacity:1.000000;fill-opacity:0.000000" />
<text transform="translate(326.16,455.87)"  style="font-size:10" >96 days</text>
</svg>
