<?xml version="1.0" encoding="UTF-8"?>
<svg xmlns="http://www.w3.org/2000/svg" width="361.35" height="361.35" viewBox="0,0,361.35,361.35">
<desc>R SVG Plot!</desc>
<rect width="100%" height="100%" style="fill:#FFFFFF"/>
<polyline points="45.64 , 308.31 332.38 , 44.71 " style="stroke-width:1;stroke:#FF0000;fill:#000000;stroke-opacity:1.000000;fill-opacity:0.000000"/>
<line x1="45.64" y1="318.85" x2="281.32" y2="318.85" style="stroke-width:1;stroke:#000000;fill:#000000;stroke-opacity:1.000000;fill-opacity:0.000000"/>
<line x1="45.64" y1="318.85" x2="45.64" y2="323.02" style="stroke-width:1;stroke:#000000;fill:#000000;stroke-opacity:1.000000;fill-opacity:0.000000"/>
<line x1="124.20" y1="318.85" x2="124.20" y2="323.02" style="stroke-width:1;stroke:#000000;fill:#000000;stroke-opacity:1.000000;fill-opacity:0.000000"/>
<line x1="202.76" y1="318.85" x2="202.76" y2="323.02" style="stroke-width:1;stroke:#000000;fill:#000000;stroke-opacity:1.000000;fill-opacity:0.000000"/>
<line x1="281.32" y1="318.85" x2="281.32" y2="323.02" style="stroke-width:1;stroke:#000000;fill:#000000;stroke-opacity:1.000000;fill-opacity:0.000000"/>
<text transform="translate(43.14,335.52)"  style="font-size:10" >0</text>
<text transform="translate(115.95,335.52)"  style="font-size:10" >100</text>
<text transform="translate(194.51,335.52)"  style="font-size:10" >200</text>
<text transform="translate(273.07,335.52)"  style="font-size:10" >300</text>
<line x1="34.17" y1="308.31" x2="34.17" y2="50.38" style="stroke-width:1;stroke:#000000;fill:#000000;stroke-opacity:1.000000;fill-opacity:0.000000"/>
<line x1="34.17" y1="308.31" x2="30.00" y2="308.31" style="stroke-width:1;stroke:#000000;fill:#000000;stroke-opacity:1.000000;fill-opacity:0.000000"/>
<line x1="34.17" y1="265.32" x2="30.00" y2="265.32" style="stroke-width:1;stroke:#000000;fill:#000000;stroke-opacity:1.000000;fill-opacity:0.000000"/>
<line x1="34.17" y1="222.33" x2="30.00" y2="222.33" style="stroke-width:1;stroke:#000000;fill:#000000;stroke-opacity:1.000000;fill-opacity:0.000000"/>
<line x1="34.17" y1="179.35" x2="30.00" y2="179.35" style="stroke-width:1;stroke:#000000;fill:#000000;stroke-opacity:1.000000;fill-opacity:0.000000"/>
<line x1="34.17" y1="136.36" x2="30.00" y2="136.36" style="stroke-width:1;stroke:#000000;fill:#000000;stroke-opacity:1.000000;fill-opacity:0.000000"/>
<line x1="34.17" y1="93.37" x2="30.00" y2="93.37" style="stroke-width:1;stroke:#000000;fill:#000000;stroke-opacity:1.000000;fill-opacity:0.000000"/>
<line x1="34.17" y1="50.38" x2="30.00" y2="50.38" style="stroke-width:1;stroke:#000000;fill:#000000;stroke-opacity:1.000000;fill-opacity:0.000000"/>
<text transform="translate(25.83,311.06) rotate(-90)"  style="font-size:10" >0</text>
<text transform="translate(25.83,273.57) rotate(-90)"  style="font-size:10" >500</text>
<text transform="translate(25.83,233.33) rotate(-90)"  style="font-size:10" >1000</text>
<text transform="translate(25.83,190.35) rotate(-90)"  style="font-size:10" >1500</text>
<text transform="translate(25.83,147.36) rotate(-90)"  style="font-size:10" >2000</text>
<text transform="translate(25.83,104.37) rotate(-90)"  style="font-size:10" >2500</text>
<text transform="translate(25.83,61.38) rotate(-90)"  style="font-size:10" >3000</text>
<polyline points="34.17 , 318.85 343.85 , 318.85 343.85 , 34.17 34.17 , 34.17 34.17 , 318.85 " style="stroke-width:1;stroke:#000000;fill:#000000;stroke-opacity:1.000000;fill-opacity:0.000000"/>
<text transform="translate(177.17,352.18)"  style="font-size:10" >Time</text>
<text transform="translate(9.17,204.98) rotate(-90)"  style="font-size:10" >cost ($USD)</text>
<text transform="translate(30.64,17.08)"  style="font-size:12" >Utilization: medium Region: apac-tokyo Instance: m1.large</text>
<text transform="translate(37.39,27.08)"  style="font-size:12" >year1 term is cheaper than on-demand after 131 days of usage</text>
<text transform="translate(73.95,304.11)"  style="font-size:10" >on-demand=$0.35/hour</text>
<line x1="34.17" y1="254.63" x2="343.85" y2="144.01" style="stroke-width:1;stroke:#00FF00;fill:#000000;stroke-opacity:1.000000;fill-opacity:0.000000"/>
<text transform="translate(97.96,246.37)"  style="font-size:10" >Reserved=$672+$0.14/hour</text>
<circle cx="148.43" cy="213.82" r="2.34" style="stroke-width:1;stroke:#000000;fill:#FFFFFF;stroke-opacity:1.000000;fill-opacity:0.000000" />
<text transform="translate(128.86,222.15)"  style="font-size:10" >131 days</text>
</svg>
