<?xml version="1.0" encoding="UTF-8"?>
<svg xmlns="http://www.w3.org/2000/svg" width="361.35" height="361.35" viewBox="0,0,361.35,361.35">
<desc>R SVG Plot!</desc>
<rect width="100%" height="100%" style="fill:#FFFFFF"/>
<polyline points="45.64 , 308.31 332.38 , 44.71 " style="stroke-width:1;stroke:#FF0000;fill:#000000;stroke-opacity:1.000000;fill-opacity:0.000000"/>
<line x1="45.64" y1="318.85" x2="307.50" y2="318.85" style="stroke-width:1;stroke:#000000;fill:#000000;stroke-opacity:1.000000;fill-opacity:0.000000"/>
<line x1="45.64" y1="318.85" x2="45.64" y2="323.02" style="stroke-width:1;stroke:#000000;fill:#000000;stroke-opacity:1.000000;fill-opacity:0.000000"/>
<line x1="98.01" y1="318.85" x2="98.01" y2="323.02" style="stroke-width:1;stroke:#000000;fill:#000000;stroke-opacity:1.000000;fill-opacity:0.000000"/>
<line x1="150.38" y1="318.85" x2="150.38" y2="323.02" style="stroke-width:1;stroke:#000000;fill:#000000;stroke-opacity:1.000000;fill-opacity:0.000000"/>
<line x1="202.76" y1="318.85" x2="202.76" y2="323.02" style="stroke-width:1;stroke:#000000;fill:#000000;stroke-opacity:1.000000;fill-opacity:0.000000"/>
<line x1="255.13" y1="318.85" x2="255.13" y2="323.02" style="stroke-width:1;stroke:#000000;fill:#000000;stroke-opacity:1.000000;fill-opacity:0.000000"/>
<line x1="307.50" y1="318.85" x2="307.50" y2="323.02" style="stroke-width:1;stroke:#000000;fill:#000000;stroke-opacity:1.000000;fill-opacity:0.000000"/>
<text transform="translate(43.14,335.52)"  style="font-size:10" >0</text>
<text transform="translate(89.76,335.52)"  style="font-size:10" >200</text>
<text transform="translate(142.13,335.52)"  style="font-size:10" >400</text>
<text transform="translate(194.51,335.52)"  style="font-size:10" >600</text>
<text transform="translate(246.88,335.52)"  style="font-size:10" >800</text>
<text transform="translate(296.50,335.52)"  style="font-size:10" >1000</text>
<line x1="34.17" y1="308.31" x2="34.17" y2="40.83" style="stroke-width:1;stroke:#000000;fill:#000000;stroke-opacity:1.000000;fill-opacity:0.000000"/>
<line x1="34.17" y1="308.31" x2="30.00" y2="308.31" style="stroke-width:1;stroke:#000000;fill:#000000;stroke-opacity:1.000000;fill-opacity:0.000000"/>
<line x1="34.17" y1="254.81" x2="30.00" y2="254.81" style="stroke-width:1;stroke:#000000;fill:#000000;stroke-opacity:1.000000;fill-opacity:0.000000"/>
<line x1="34.17" y1="201.32" x2="30.00" y2="201.32" style="stroke-width:1;stroke:#000000;fill:#000000;stroke-opacity:1.000000;fill-opacity:0.000000"/>
<line x1="34.17" y1="147.82" x2="30.00" y2="147.82" style="stroke-width:1;stroke:#000000;fill:#000000;stroke-opacity:1.000000;fill-opacity:0.000000"/>
<line x1="34.17" y1="94.33" x2="30.00" y2="94.33" style="stroke-width:1;stroke:#000000;fill:#000000;stroke-opacity:1.000000;fill-opacity:0.000000"/>
<line x1="34.17" y1="40.83" x2="30.00" y2="40.83" style="stroke-width:1;stroke:#000000;fill:#000000;stroke-opacity:1.000000;fill-opacity:0.000000"/>
<text transform="translate(25.83,323.39) rotate(-90)"  style="font-size:10" >0e+00</text>
<text transform="translate(25.83,269.89) rotate(-90)"  style="font-size:10" >2e+04</text>
<text transform="translate(25.83,216.40) rotate(-90)"  style="font-size:10" >4e+04</text>
<text transform="translate(25.83,162.91) rotate(-90)"  style="font-size:10" >6e+04</text>
<text transform="translate(25.83,109.41) rotate(-90)"  style="font-size:10" >8e+04</text>
<text transform="translate(25.83,55.92) rotate(-90)"  style="font-size:10" >1e+05</text>
<polyline points="34.17 , 318.85 343.85 , 318.85 343.85 , 34.17 34.17 , 34.17 34.17 , 318.85 " style="stroke-width:1;stroke:#000000;fill:#000000;stroke-opacity:1.000000;fill-opacity:0.000000"/>
<text transform="translate(177.17,352.18)"  style="font-size:10" >Time</text>
<text transform="translate(9.17,204.98) rotate(-90)"  style="font-size:10" >cost ($USD)</text>
<text transform="translate(33.64,17.08)"  style="font-size:12" >Utilization: heavy Region: eu-ireland Instance: cr1.8xlarge</text>
<text transform="translate(37.39,27.08)"  style="font-size:12" >year3 term is cheaper than on-demand after 151 days of usage</text>
<line x1="34.17" y1="281.30" x2="343.85" y2="224.67" style="stroke-width:1;stroke:#00FF00;fill:#000000;stroke-opacity:1.000000;fill-opacity:0.000000"/>
<text transform="translate(138.30,275.04)"  style="font-size:10" >Reserved=$10880+$0.75/hour</text>
<circle cx="85.15" cy="271.98" r="2.34" style="stroke-width:1;stroke:#000000;fill:#FFFFFF;stroke-opacity:1.000000;fill-opacity:0.000000" />
<text transform="translate(65.59,280.31)"  style="font-size:10" >151 days</text>
</svg>
