<?xml version="1.0" encoding="UTF-8"?>
<svg xmlns="http://www.w3.org/2000/svg" width="578.16" height="361.35" viewBox="0,0,578.16,361.35">
<desc>R SVG Plot!</desc>
<rect width="100%" height="100%" style="fill:#FFFFFF"/>
<polyline points="53.67 , 308.31 541.16 , 44.71 " style="stroke-width:1;stroke:#FF0000;fill:#000000;stroke-opacity:1.000000;fill-opacity:0.000000"/>
<line x1="53.67" y1="318.85" x2="498.87" y2="318.85" style="stroke-width:1;stroke:#000000;fill:#000000;stroke-opacity:1.000000;fill-opacity:0.000000"/>
<line x1="53.67" y1="318.85" x2="53.67" y2="323.02" style="stroke-width:1;stroke:#000000;fill:#000000;stroke-opacity:1.000000;fill-opacity:0.000000"/>
<line x1="142.71" y1="318.85" x2="142.71" y2="323.02" style="stroke-width:1;stroke:#000000;fill:#000000;stroke-opacity:1.000000;fill-opacity:0.000000"/>
<line x1="231.75" y1="318.85" x2="231.75" y2="323.02" style="stroke-width:1;stroke:#000000;fill:#000000;stroke-opacity:1.000000;fill-opacity:0.000000"/>
<line x1="320.79" y1="318.85" x2="320.79" y2="323.02" style="stroke-width:1;stroke:#000000;fill:#000000;stroke-opacity:1.000000;fill-opacity:0.000000"/>
<line x1="409.83" y1="318.85" x2="409.83" y2="323.02" style="stroke-width:1;stroke:#000000;fill:#000000;stroke-opacity:1.000000;fill-opacity:0.000000"/>
<line x1="498.87" y1="318.85" x2="498.87" y2="323.02" style="stroke-width:1;stroke:#000000;fill:#000000;stroke-opacity:1.000000;fill-opacity:0.000000"/>
<text transform="translate(51.17,335.52)"  style="font-size:10" >0</text>
<text transform="translate(134.46,335.52)"  style="font-size:10" >200</text>
<text transform="translate(223.50,335.52)"  style="font-size:10" >400</text>
<text transform="translate(312.54,335.52)"  style="font-size:10" >600</text>
<text transform="translate(401.58,335.52)"  style="font-size:10" >800</text>
<text transform="translate(487.87,335.52)"  style="font-size:10" >1000</text>
<line x1="34.17" y1="308.31" x2="34.17" y2="46.65" style="stroke-width:1;stroke:#000000;fill:#000000;stroke-opacity:1.000000;fill-opacity:0.000000"/>
<line x1="34.17" y1="308.31" x2="30.00" y2="308.31" style="stroke-width:1;stroke:#000000;fill:#000000;stroke-opacity:1.000000;fill-opacity:0.000000"/>
<line x1="34.17" y1="264.70" x2="30.00" y2="264.70" style="stroke-width:1;stroke:#000000;fill:#000000;stroke-opacity:1.000000;fill-opacity:0.000000"/>
<line x1="34.17" y1="221.09" x2="30.00" y2="221.09" style="stroke-width:1;stroke:#000000;fill:#000000;stroke-opacity:1.000000;fill-opacity:0.000000"/>
<line x1="34.17" y1="177.48" x2="30.00" y2="177.48" style="stroke-width:1;stroke:#000000;fill:#000000;stroke-opacity:1.000000;fill-opacity:0.000000"/>
<line x1="34.17" y1="133.87" x2="30.00" y2="133.87" style="stroke-width:1;stroke:#000000;fill:#000000;stroke-opacity:1.000000;fill-opacity:0.000000"/>
<line x1="34.17" y1="90.26" x2="30.00" y2="90.26" style="stroke-width:1;stroke:#000000;fill:#000000;stroke-opacity:1.000000;fill-opacity:0.000000"/>
<line x1="34.17" y1="46.65" x2="30.00" y2="46.65" style="stroke-width:1;stroke:#000000;fill:#000000;stroke-opacity:1.000000;fill-opacity:0.000000"/>
<text transform="translate(25.83,311.06) rotate(-90)"  style="font-size:10" >0</text>
<text transform="translate(25.83,275.70) rotate(-90)"  style="font-size:10" >2000</text>
<text transform="translate(25.83,232.09) rotate(-90)"  style="font-size:10" >4000</text>
<text transform="translate(25.83,188.48) rotate(-90)"  style="font-size:10" >6000</text>
<text transform="translate(25.83,144.87) rotate(-90)"  style="font-size:10" >8000</text>
<text transform="translate(25.83,104.01) rotate(-90)"  style="font-size:10" >10000</text>
<text transform="translate(25.83,60.40) rotate(-90)"  style="font-size:10" >12000</text>
<polyline points="34.17 , 318.85 560.66 , 318.85 560.66 , 34.17 34.17 , 34.17 34.17 , 318.85 " style="stroke-width:1;stroke:#000000;fill:#000000;stroke-opacity:1.000000;fill-opacity:0.000000"/>
<text transform="translate(285.58,352.18)"  style="font-size:10" >Time</text>
<text transform="translate(9.17,204.98) rotate(-90)"  style="font-size:10" >cost ($USD)</text>
<text transform="translate(139.17,17.08)"  style="font-size:12" >Utilization: medium Region: eu-ireland Instance: m2.xlarge</text>
<text transform="translate(145.80,27.08)"  style="font-size:12" >year3 term is cheaper than on-demand after 116 days of usage</text>
<line x1="34.17" y1="289.06" x2="560.66" y2="224.70" style="stroke-width:1;stroke:#00FF00;fill:#000000;stroke-opacity:1.000000;fill-opacity:0.000000"/>
<circle cx="105.36" cy="280.36" r="2.34" style="stroke-width:1;stroke:#000000;fill:#FFFFFF;stroke-opacity:1.000000;fill-opacity:0.000000" />
<text transform="translate(87.45,288.69)"  style="font-size:10" >116 days</text>
</svg>
