<?xml version="1.0" encoding="UTF-8"?>
<svg xmlns="http://www.w3.org/2000/svg" width="1156.32" height="650.43" viewBox="0,0,1156.32,650.43">
<desc>R SVG Plot!</desc>
<rect width="100%" height="100%" style="fill:#FFFFFF"/>
<polyline points="75.08 , 586.68 1097.91 , 55.42 " style="stroke-width:1;stroke:#FF0000;fill:#000000;stroke-opacity:1.000000;fill-opacity:0.000000"/>
<line x1="75.08" y1="607.93" x2="915.76" y2="607.93" style="stroke-width:1;stroke:#000000;fill:#000000;stroke-opacity:1.000000;fill-opacity:0.000000"/>
<line x1="75.08" y1="607.93" x2="75.08" y2="612.10" style="stroke-width:1;stroke:#000000;fill:#000000;stroke-opacity:1.000000;fill-opacity:0.000000"/>
<line x1="355.31" y1="607.93" x2="355.31" y2="612.10" style="stroke-width:1;stroke:#000000;fill:#000000;stroke-opacity:1.000000;fill-opacity:0.000000"/>
<line x1="635.53" y1="607.93" x2="635.53" y2="612.10" style="stroke-width:1;stroke:#000000;fill:#000000;stroke-opacity:1.000000;fill-opacity:0.000000"/>
<line x1="915.76" y1="607.93" x2="915.76" y2="612.10" style="stroke-width:1;stroke:#000000;fill:#000000;stroke-opacity:1.000000;fill-opacity:0.000000"/>
<text transform="translate(72.58,624.60)"  style="font-size:10" >0</text>
<text transform="translate(347.06,624.60)"  style="font-size:10" >100</text>
<text transform="translate(627.28,624.60)"  style="font-size:10" >200</text>
<text transform="translate(907.51,624.60)"  style="font-size:10" >300</text>
<line x1="34.17" y1="586.68" x2="34.17" y2="137.45" style="stroke-width:1;stroke:#000000;fill:#000000;stroke-opacity:1.000000;fill-opacity:0.000000"/>
<line x1="34.17" y1="586.68" x2="30.00" y2="586.68" style="stroke-width:1;stroke:#000000;fill:#000000;stroke-opacity:1.000000;fill-opacity:0.000000"/>
<line x1="34.17" y1="474.37" x2="30.00" y2="474.37" style="stroke-width:1;stroke:#000000;fill:#000000;stroke-opacity:1.000000;fill-opacity:0.000000"/>
<line x1="34.17" y1="362.06" x2="30.00" y2="362.06" style="stroke-width:1;stroke:#000000;fill:#000000;stroke-opacity:1.000000;fill-opacity:0.000000"/>
<line x1="34.17" y1="249.76" x2="30.00" y2="249.76" style="stroke-width:1;stroke:#000000;fill:#000000;stroke-opacity:1.000000;fill-opacity:0.000000"/>
<line x1="34.17" y1="137.45" x2="30.00" y2="137.45" style="stroke-width:1;stroke:#000000;fill:#000000;stroke-opacity:1.000000;fill-opacity:0.000000"/>
<text transform="translate(25.83,589.43) rotate(-90)"  style="font-size:10" >0</text>
<text transform="translate(25.83,485.37) rotate(-90)"  style="font-size:10" >2000</text>
<text transform="translate(25.83,373.06) rotate(-90)"  style="font-size:10" >4000</text>
<text transform="translate(25.83,260.76) rotate(-90)"  style="font-size:10" >6000</text>
<text transform="translate(25.83,148.45) rotate(-90)"  style="font-size:10" >8000</text>
<polyline points="34.17 , 607.93 1138.82 , 607.93 1138.82 , 34.17 34.17 , 34.17 34.17 , 607.93 " style="stroke-width:1;stroke:#000000;fill:#000000;stroke-opacity:1.000000;fill-opacity:0.000000"/>
<text transform="translate(574.66,641.26)"  style="font-size:10" >Time</text>
<text transform="translate(9.17,349.52) rotate(-90)"  style="font-size:10" >cost ($USD)</text>
<text transform="translate(436.85,17.08)"  style="font-size:12" >Utilization: light Region: sa-east-1 Instance: m2.2xlarge</text>
<text transform="translate(437.88,27.08)"  style="font-size:12" >year1 term is cheaper than on-demand after 47 days of usage</text>
<text transform="translate(192.97,582.45)"  style="font-size:10" >on-demand=$1.08/hour</text>
<line x1="34.17" y1="556.06" x2="1138.82" y2="313.81" style="stroke-width:1;stroke:#00FF00;fill:#000000;stroke-opacity:1.000000;fill-opacity:0.000000"/>
<text transform="translate(177.70,542.92)"  style="font-size:10" >Reserved=$705+$0.46/hour</text>
<circle cx="207.00" cy="518.16" r="2.34" style="stroke-width:1;stroke:#000000;fill:#FFFFFF;stroke-opacity:1.000000;fill-opacity:0.000000" />
<text transform="translate(190.18,526.49)"  style="font-size:10" >47 days</text>
</svg>
