<?xml version="1.0" encoding="UTF-8"?>
<svg xmlns="http://www.w3.org/2000/svg" width="1156.32" height="650.43" viewBox="0,0,1156.32,650.43">
<desc>R SVG Plot!</desc>
<rect width="100%" height="100%" style="fill:#FFFFFF"/>
<polyline points="75.08 , 586.68 1097.91 , 55.42 " style="stroke-width:1;stroke:#FF0000;fill:#000000;stroke-opacity:1.000000;fill-opacity:0.000000"/>
<line x1="75.08" y1="607.93" x2="915.76" y2="607.93" style="stroke-width:1;stroke:#000000;fill:#000000;stroke-opacity:1.000000;fill-opacity:0.000000"/>
<line x1="75.08" y1="607.93" x2="75.08" y2="612.10" style="stroke-width:1;stroke:#000000;fill:#000000;stroke-opacity:1.000000;fill-opacity:0.000000"/>
<line x1="355.31" y1="607.93" x2="355.31" y2="612.10" style="stroke-width:1;stroke:#000000;fill:#000000;stroke-opacity:1.000000;fill-opacity:0.000000"/>
<line x1="635.53" y1="607.93" x2="635.53" y2="612.10" style="stroke-width:1;stroke:#000000;fill:#000000;stroke-opacity:1.000000;fill-opacity:0.000000"/>
<line x1="915.76" y1="607.93" x2="915.76" y2="612.10" style="stroke-width:1;stroke:#000000;fill:#000000;stroke-opacity:1.000000;fill-opacity:0.000000"/>
<text transform="translate(72.58,624.60)"  style="font-size:10" >0</text>
<text transform="translate(347.06,624.60)"  style="font-size:10" >100</text>
<text transform="translate(627.28,624.60)"  style="font-size:10" >200</text>
<text transform="translate(907.51,624.60)"  style="font-size:10" >300</text>
<line x1="34.17" y1="586.68" x2="34.17" y2="91.20" style="stroke-width:1;stroke:#000000;fill:#000000;stroke-opacity:1.000000;fill-opacity:0.000000"/>
<line x1="34.17" y1="586.68" x2="30.00" y2="586.68" style="stroke-width:1;stroke:#000000;fill:#000000;stroke-opacity:1.000000;fill-opacity:0.000000"/>
<line x1="34.17" y1="487.58" x2="30.00" y2="487.58" style="stroke-width:1;stroke:#000000;fill:#000000;stroke-opacity:1.000000;fill-opacity:0.000000"/>
<line x1="34.17" y1="388.49" x2="30.00" y2="388.49" style="stroke-width:1;stroke:#000000;fill:#000000;stroke-opacity:1.000000;fill-opacity:0.000000"/>
<line x1="34.17" y1="289.39" x2="30.00" y2="289.39" style="stroke-width:1;stroke:#000000;fill:#000000;stroke-opacity:1.000000;fill-opacity:0.000000"/>
<line x1="34.17" y1="190.30" x2="30.00" y2="190.30" style="stroke-width:1;stroke:#000000;fill:#000000;stroke-opacity:1.000000;fill-opacity:0.000000"/>
<line x1="34.17" y1="91.20" x2="30.00" y2="91.20" style="stroke-width:1;stroke:#000000;fill:#000000;stroke-opacity:1.000000;fill-opacity:0.000000"/>
<text transform="translate(25.83,589.43) rotate(-90)"  style="font-size:10" >0</text>
<text transform="translate(25.83,498.58) rotate(-90)"  style="font-size:10" >2000</text>
<text transform="translate(25.83,399.49) rotate(-90)"  style="font-size:10" >4000</text>
<text transform="translate(25.83,300.39) rotate(-90)"  style="font-size:10" >6000</text>
<text transform="translate(25.83,201.30) rotate(-90)"  style="font-size:10" >8000</text>
<text transform="translate(25.83,104.95) rotate(-90)"  style="font-size:10" >10000</text>
<polyline points="34.17 , 607.93 1138.82 , 607.93 1138.82 , 34.17 34.17 , 34.17 34.17 , 607.93 " style="stroke-width:1;stroke:#000000;fill:#000000;stroke-opacity:1.000000;fill-opacity:0.000000"/>
<text transform="translate(574.66,641.26)"  style="font-size:10" >Time</text>
<text transform="translate(9.17,349.52) rotate(-90)"  style="font-size:10" >cost ($USD)</text>
<text transform="translate(433.43,17.08)"  style="font-size:12" >Utilization: heavy Region: sa-east-1 Instance: m3.2xlarge</text>
<text transform="translate(434.88,27.08)"  style="font-size:12" >year1 term is cheaper than on-demand after 131 days of usage</text>
<text transform="translate(192.97,582.45)"  style="font-size:10" >on-demand=$1.22/hour</text>
<line x1="34.17" y1="436.60" x2="1138.82" y2="325.51" style="stroke-width:1;stroke:#00FF00;fill:#000000;stroke-opacity:1.000000;fill-opacity:0.000000"/>
<text transform="translate(174.95,428.32)"  style="font-size:10" >Reserved=$3112+$0.24/hour</text>
<circle cx="443.23" cy="395.46" r="2.34" style="stroke-width:1;stroke:#000000;fill:#FFFFFF;stroke-opacity:1.000000;fill-opacity:0.000000" />
<text transform="translate(423.66,403.80)"  style="font-size:10" >131 days</text>
</svg>
