<?xml version="1.0" encoding="UTF-8"?>
<svg xmlns="http://www.w3.org/2000/svg" width="361.35" height="361.35" viewBox="0,0,361.35,361.35">
<desc>R SVG Plot!</desc>
<rect width="100%" height="100%" style="fill:#FFFFFF"/>
<polyline points="45.64 , 308.31 332.38 , 44.71 " style="stroke-width:1;stroke:#FF0000;fill:#000000;stroke-opacity:1.000000;fill-opacity:0.000000"/>
<line x1="45.64" y1="318.85" x2="281.32" y2="318.85" style="stroke-width:1;stroke:#000000;fill:#000000;stroke-opacity:1.000000;fill-opacity:0.000000"/>
<line x1="45.64" y1="318.85" x2="45.64" y2="323.02" style="stroke-width:1;stroke:#000000;fill:#000000;stroke-opacity:1.000000;fill-opacity:0.000000"/>
<line x1="124.20" y1="318.85" x2="124.20" y2="323.02" style="stroke-width:1;stroke:#000000;fill:#000000;stroke-opacity:1.000000;fill-opacity:0.000000"/>
<line x1="202.76" y1="318.85" x2="202.76" y2="323.02" style="stroke-width:1;stroke:#000000;fill:#000000;stroke-opacity:1.000000;fill-opacity:0.000000"/>
<line x1="281.32" y1="318.85" x2="281.32" y2="323.02" style="stroke-width:1;stroke:#000000;fill:#000000;stroke-opacity:1.000000;fill-opacity:0.000000"/>
<text transform="translate(43.14,335.52)"  style="font-size:10" >0</text>
<text transform="translate(115.95,335.52)"  style="font-size:10" >100</text>
<text transform="translate(194.51,335.52)"  style="font-size:10" >200</text>
<text transform="translate(273.07,335.52)"  style="font-size:10" >300</text>
<line x1="34.17" y1="308.31" x2="34.17" y2="76.84" style="stroke-width:1;stroke:#000000;fill:#000000;stroke-opacity:1.000000;fill-opacity:0.000000"/>
<line x1="34.17" y1="308.31" x2="30.00" y2="308.31" style="stroke-width:1;stroke:#000000;fill:#000000;stroke-opacity:1.000000;fill-opacity:0.000000"/>
<line x1="34.17" y1="262.01" x2="30.00" y2="262.01" style="stroke-width:1;stroke:#000000;fill:#000000;stroke-opacity:1.000000;fill-opacity:0.000000"/>
<line x1="34.17" y1="215.72" x2="30.00" y2="215.72" style="stroke-width:1;stroke:#000000;fill:#000000;stroke-opacity:1.000000;fill-opacity:0.000000"/>
<line x1="34.17" y1="169.43" x2="30.00" y2="169.43" style="stroke-width:1;stroke:#000000;fill:#000000;stroke-opacity:1.000000;fill-opacity:0.000000"/>
<line x1="34.17" y1="123.13" x2="30.00" y2="123.13" style="stroke-width:1;stroke:#000000;fill:#000000;stroke-opacity:1.000000;fill-opacity:0.000000"/>
<line x1="34.17" y1="76.84" x2="30.00" y2="76.84" style="stroke-width:1;stroke:#000000;fill:#000000;stroke-opacity:1.000000;fill-opacity:0.000000"/>
<text transform="translate(25.83,311.06) rotate(-90)"  style="font-size:10" >0</text>
<text transform="translate(25.83,273.01) rotate(-90)"  style="font-size:10" >1000</text>
<text transform="translate(25.83,226.72) rotate(-90)"  style="font-size:10" >2000</text>
<text transform="translate(25.83,180.43) rotate(-90)"  style="font-size:10" >3000</text>
<text transform="translate(25.83,134.13) rotate(-90)"  style="font-size:10" >4000</text>
<text transform="translate(25.83,87.84) rotate(-90)"  style="font-size:10" >5000</text>
<polyline points="34.17 , 318.85 343.85 , 318.85 343.85 , 34.17 34.17 , 34.17 34.17 , 318.85 " style="stroke-width:1;stroke:#000000;fill:#000000;stroke-opacity:1.000000;fill-opacity:0.000000"/>
<text transform="translate(177.17,352.18)"  style="font-size:10" >Time</text>
<text transform="translate(9.17,204.98) rotate(-90)"  style="font-size:10" >cost ($USD)</text>
<text transform="translate(43.13,17.08)"  style="font-size:12" >Utilization: heavy Region: us-east Instance: g2.2xlarge</text>
<text transform="translate(37.39,27.08)"  style="font-size:12" >year1 term is cheaper than on-demand after 189 days of usage</text>
<text transform="translate(73.95,304.11)"  style="font-size:10" >on-demand=$0.65/hour</text>
<line x1="34.17" y1="203.86" x2="343.85" y2="141.66" style="stroke-width:1;stroke:#00FF00;fill:#000000;stroke-opacity:1.000000;fill-opacity:0.000000"/>
<text transform="translate(95.21,197.39)"  style="font-size:10" >Reserved=$2306+$0.14/hour</text>
<circle cx="194.23" cy="171.71" r="2.34" style="stroke-width:1;stroke:#000000;fill:#FFFFFF;stroke-opacity:1.000000;fill-opacity:0.000000" />
<text transform="translate(174.66,180.05)"  style="font-size:10" >189 days</text>
</svg>
