<?xml version="1.0" encoding="UTF-8"?>
<svg xmlns="http://www.w3.org/2000/svg" width="1156.32" height="650.43" viewBox="0,0,1156.32,650.43">
<desc>R SVG Plot!</desc>
<rect width="100%" height="100%" style="fill:#FFFFFF"/>
<polyline points="75.08 , 586.68 1097.91 , 55.42 " style="stroke-width:1;stroke:#FF0000;fill:#000000;stroke-opacity:1.000000;fill-opacity:0.000000"/>
<line x1="75.08" y1="607.93" x2="1009.17" y2="607.93" style="stroke-width:1;stroke:#000000;fill:#000000;stroke-opacity:1.000000;fill-opacity:0.000000"/>
<line x1="75.08" y1="607.93" x2="75.08" y2="612.10" style="stroke-width:1;stroke:#000000;fill:#000000;stroke-opacity:1.000000;fill-opacity:0.000000"/>
<line x1="261.90" y1="607.93" x2="261.90" y2="612.10" style="stroke-width:1;stroke:#000000;fill:#000000;stroke-opacity:1.000000;fill-opacity:0.000000"/>
<line x1="448.72" y1="607.93" x2="448.72" y2="612.10" style="stroke-width:1;stroke:#000000;fill:#000000;stroke-opacity:1.000000;fill-opacity:0.000000"/>
<line x1="635.53" y1="607.93" x2="635.53" y2="612.10" style="stroke-width:1;stroke:#000000;fill:#000000;stroke-opacity:1.000000;fill-opacity:0.000000"/>
<line x1="822.35" y1="607.93" x2="822.35" y2="612.10" style="stroke-width:1;stroke:#000000;fill:#000000;stroke-opacity:1.000000;fill-opacity:0.000000"/>
<line x1="1009.17" y1="607.93" x2="1009.17" y2="612.10" style="stroke-width:1;stroke:#000000;fill:#000000;stroke-opacity:1.000000;fill-opacity:0.000000"/>
<text transform="translate(72.58,624.60)"  style="font-size:10" >0</text>
<text transform="translate(253.65,624.60)"  style="font-size:10" >200</text>
<text transform="translate(440.47,624.60)"  style="font-size:10" >400</text>
<text transform="translate(627.28,624.60)"  style="font-size:10" >600</text>
<text transform="translate(814.10,624.60)"  style="font-size:10" >800</text>
<text transform="translate(998.17,624.60)"  style="font-size:10" >1000</text>
<line x1="34.17" y1="586.68" x2="34.17" y2="64.99" style="stroke-width:1;stroke:#000000;fill:#000000;stroke-opacity:1.000000;fill-opacity:0.000000"/>
<line x1="34.17" y1="586.68" x2="30.00" y2="586.68" style="stroke-width:1;stroke:#000000;fill:#000000;stroke-opacity:1.000000;fill-opacity:0.000000"/>
<line x1="34.17" y1="456.26" x2="30.00" y2="456.26" style="stroke-width:1;stroke:#000000;fill:#000000;stroke-opacity:1.000000;fill-opacity:0.000000"/>
<line x1="34.17" y1="325.83" x2="30.00" y2="325.83" style="stroke-width:1;stroke:#000000;fill:#000000;stroke-opacity:1.000000;fill-opacity:0.000000"/>
<line x1="34.17" y1="195.41" x2="30.00" y2="195.41" style="stroke-width:1;stroke:#000000;fill:#000000;stroke-opacity:1.000000;fill-opacity:0.000000"/>
<line x1="34.17" y1="64.99" x2="30.00" y2="64.99" style="stroke-width:1;stroke:#000000;fill:#000000;stroke-opacity:1.000000;fill-opacity:0.000000"/>
<text transform="translate(25.83,589.43) rotate(-90)"  style="font-size:10" >0</text>
<text transform="translate(25.83,470.01) rotate(-90)"  style="font-size:10" >20000</text>
<text transform="translate(25.83,339.58) rotate(-90)"  style="font-size:10" >40000</text>
<text transform="translate(25.83,209.16) rotate(-90)"  style="font-size:10" >60000</text>
<text transform="translate(25.83,78.74) rotate(-90)"  style="font-size:10" >80000</text>
<polyline points="34.17 , 607.93 1138.82 , 607.93 1138.82 , 34.17 34.17 , 34.17 34.17 , 607.93 " style="stroke-width:1;stroke:#000000;fill:#000000;stroke-opacity:1.000000;fill-opacity:0.000000"/>
<text transform="translate(574.66,641.26)"  style="font-size:10" >Time</text>
<text transform="translate(9.17,349.52) rotate(-90)"  style="font-size:10" >cost ($USD)</text>
<text transform="translate(435.62,17.08)"  style="font-size:12" >Utilization: light Region: us-west-2 Instance: hi1.4xlarge</text>
<text transform="translate(437.88,27.08)"  style="font-size:12" >year3 term is cheaper than on-demand after 83 days of usage</text>
<text transform="translate(80.87,582.49)"  style="font-size:10" >on-demand=$3.10/hour</text>
<line x1="34.17" y1="569.23" x2="1138.82" y2="356.39" style="stroke-width:1;stroke:#00FF00;fill:#000000;stroke-opacity:1.000000;fill-opacity:0.000000"/>
<text transform="translate(56.32,557.18)"  style="font-size:10" >Reserved=$3884+$1.15/hour</text>
<circle cx="152.60" cy="546.41" r="2.34" style="stroke-width:1;stroke:#000000;fill:#FFFFFF;stroke-opacity:1.000000;fill-opacity:0.000000" />
<text transform="translate(135.78,554.75)"  style="font-size:10" >83 days</text>
</svg>
