<?xml version="1.0" encoding="UTF-8"?>
<svg xmlns="http://www.w3.org/2000/svg" width="578.16" height="361.35" viewBox="0,0,578.16,361.35">
<desc>R SVG Plot!</desc>
<rect width="100%" height="100%" style="fill:#FFFFFF"/>
<polyline points="53.67 , 308.31 541.16 , 44.71 " style="stroke-width:1;stroke:#FF0000;fill:#000000;stroke-opacity:1.000000;fill-opacity:0.000000"/>
<line x1="53.67" y1="318.85" x2="498.87" y2="318.85" style="stroke-width:1;stroke:#000000;fill:#000000;stroke-opacity:1.000000;fill-opacity:0.000000"/>
<line x1="53.67" y1="318.85" x2="53.67" y2="323.02" style="stroke-width:1;stroke:#000000;fill:#000000;stroke-opacity:1.000000;fill-opacity:0.000000"/>
<line x1="142.71" y1="318.85" x2="142.71" y2="323.02" style="stroke-width:1;stroke:#000000;fill:#000000;stroke-opacity:1.000000;fill-opacity:0.000000"/>
<line x1="231.75" y1="318.85" x2="231.75" y2="323.02" style="stroke-width:1;stroke:#000000;fill:#000000;stroke-opacity:1.000000;fill-opacity:0.000000"/>
<line x1="320.79" y1="318.85" x2="320.79" y2="323.02" style="stroke-width:1;stroke:#000000;fill:#000000;stroke-opacity:1.000000;fill-opacity:0.000000"/>
<line x1="409.83" y1="318.85" x2="409.83" y2="323.02" style="stroke-width:1;stroke:#000000;fill:#000000;stroke-opacity:1.000000;fill-opacity:0.000000"/>
<line x1="498.87" y1="318.85" x2="498.87" y2="323.02" style="stroke-width:1;stroke:#000000;fill:#000000;stroke-opacity:1.000000;fill-opacity:0.000000"/>
<text transform="translate(51.17,335.52)"  style="font-size:10" >0</text>
<text transform="translate(134.46,335.52)"  style="font-size:10" >200</text>
<text transform="translate(223.50,335.52)"  style="font-size:10" >400</text>
<text transform="translate(312.54,335.52)"  style="font-size:10" >600</text>
<text transform="translate(401.58,335.52)"  style="font-size:10" >800</text>
<text transform="translate(487.87,335.52)"  style="font-size:10" >1000</text>
<line x1="34.17" y1="308.31" x2="34.17" y2="40.90" style="stroke-width:1;stroke:#000000;fill:#000000;stroke-opacity:1.000000;fill-opacity:0.000000"/>
<line x1="34.17" y1="308.31" x2="30.00" y2="308.31" style="stroke-width:1;stroke:#000000;fill:#000000;stroke-opacity:1.000000;fill-opacity:0.000000"/>
<line x1="34.17" y1="254.83" x2="30.00" y2="254.83" style="stroke-width:1;stroke:#000000;fill:#000000;stroke-opacity:1.000000;fill-opacity:0.000000"/>
<line x1="34.17" y1="201.35" x2="30.00" y2="201.35" style="stroke-width:1;stroke:#000000;fill:#000000;stroke-opacity:1.000000;fill-opacity:0.000000"/>
<line x1="34.17" y1="147.86" x2="30.00" y2="147.86" style="stroke-width:1;stroke:#000000;fill:#000000;stroke-opacity:1.000000;fill-opacity:0.000000"/>
<line x1="34.17" y1="94.38" x2="30.00" y2="94.38" style="stroke-width:1;stroke:#000000;fill:#000000;stroke-opacity:1.000000;fill-opacity:0.000000"/>
<line x1="34.17" y1="40.90" x2="30.00" y2="40.90" style="stroke-width:1;stroke:#000000;fill:#000000;stroke-opacity:1.000000;fill-opacity:0.000000"/>
<text transform="translate(25.83,323.39) rotate(-90)"  style="font-size:10" >0e+00</text>
<text transform="translate(25.83,269.91) rotate(-90)"  style="font-size:10" >2e+04</text>
<text transform="translate(25.83,216.43) rotate(-90)"  style="font-size:10" >4e+04</text>
<text transform="translate(25.83,162.95) rotate(-90)"  style="font-size:10" >6e+04</text>
<text transform="translate(25.83,109.47) rotate(-90)"  style="font-size:10" >8e+04</text>
<text transform="translate(25.83,55.99) rotate(-90)"  style="font-size:10" >1e+05</text>
<polyline points="34.17 , 318.85 560.66 , 318.85 560.66 , 34.17 34.17 , 34.17 34.17 , 318.85 " style="stroke-width:1;stroke:#000000;fill:#000000;stroke-opacity:1.000000;fill-opacity:0.000000"/>
<text transform="translate(285.58,352.18)"  style="font-size:10" >Time</text>
<text transform="translate(9.17,204.98) rotate(-90)"  style="font-size:10" >cost ($USD)</text>
<text transform="translate(151.98,17.08)"  style="font-size:12" >Utilization: heavy Region: us-west Instance: i2.4xlarge</text>
<text transform="translate(145.80,27.08)"  style="font-size:12" >year3 term is cheaper than on-demand after 152 days of usage</text>
<line x1="34.17" y1="281.08" x2="560.66" y2="224.77" style="stroke-width:1;stroke:#00FF00;fill:#000000;stroke-opacity:1.000000;fill-opacity:0.000000"/>
<circle cx="121.23" cy="271.77" r="2.34" style="stroke-width:1;stroke:#000000;fill:#FFFFFF;stroke-opacity:1.000000;fill-opacity:0.000000" />
<text transform="translate(103.33,280.11)"  style="font-size:10" >152 days</text>
</svg>
