<?xml version="1.0" encoding="UTF-8"?>
<svg xmlns="http://www.w3.org/2000/svg" width="578.16" height="361.35" viewBox="0,0,578.16,361.35">
<desc>R SVG Plot!</desc>
<rect width="100%" height="100%" style="fill:#FFFFFF"/>
<polyline points="53.67 , 308.31 541.16 , 44.71 " style="stroke-width:1;stroke:#FF0000;fill:#000000;stroke-opacity:1.000000;fill-opacity:0.000000"/>
<line x1="53.67" y1="318.85" x2="454.35" y2="318.85" style="stroke-width:1;stroke:#000000;fill:#000000;stroke-opacity:1.000000;fill-opacity:0.000000"/>
<line x1="53.67" y1="318.85" x2="53.67" y2="323.02" style="stroke-width:1;stroke:#000000;fill:#000000;stroke-opacity:1.000000;fill-opacity:0.000000"/>
<line x1="187.23" y1="318.85" x2="187.23" y2="323.02" style="stroke-width:1;stroke:#000000;fill:#000000;stroke-opacity:1.000000;fill-opacity:0.000000"/>
<line x1="320.79" y1="318.85" x2="320.79" y2="323.02" style="stroke-width:1;stroke:#000000;fill:#000000;stroke-opacity:1.000000;fill-opacity:0.000000"/>
<line x1="454.35" y1="318.85" x2="454.35" y2="323.02" style="stroke-width:1;stroke:#000000;fill:#000000;stroke-opacity:1.000000;fill-opacity:0.000000"/>
<text transform="translate(51.17,335.52)"  style="font-size:10" >0</text>
<text transform="translate(178.98,335.52)"  style="font-size:10" >100</text>
<text transform="translate(312.54,335.52)"  style="font-size:10" >200</text>
<text transform="translate(446.10,335.52)"  style="font-size:10" >300</text>
<line x1="34.17" y1="308.31" x2="34.17" y2="76.84" style="stroke-width:1;stroke:#000000;fill:#000000;stroke-opacity:1.000000;fill-opacity:0.000000"/>
<line x1="34.17" y1="308.31" x2="30.00" y2="308.31" style="stroke-width:1;stroke:#000000;fill:#000000;stroke-opacity:1.000000;fill-opacity:0.000000"/>
<line x1="34.17" y1="250.44" x2="30.00" y2="250.44" style="stroke-width:1;stroke:#000000;fill:#000000;stroke-opacity:1.000000;fill-opacity:0.000000"/>
<line x1="34.17" y1="192.57" x2="30.00" y2="192.57" style="stroke-width:1;stroke:#000000;fill:#000000;stroke-opacity:1.000000;fill-opacity:0.000000"/>
<line x1="34.17" y1="134.71" x2="30.00" y2="134.71" style="stroke-width:1;stroke:#000000;fill:#000000;stroke-opacity:1.000000;fill-opacity:0.000000"/>
<line x1="34.17" y1="76.84" x2="30.00" y2="76.84" style="stroke-width:1;stroke:#000000;fill:#000000;stroke-opacity:1.000000;fill-opacity:0.000000"/>
<text transform="translate(25.83,311.06) rotate(-90)"  style="font-size:10" >0</text>
<text transform="translate(25.83,261.44) rotate(-90)"  style="font-size:10" >1000</text>
<text transform="translate(25.83,203.57) rotate(-90)"  style="font-size:10" >2000</text>
<text transform="translate(25.83,145.71) rotate(-90)"  style="font-size:10" >3000</text>
<text transform="translate(25.83,87.84) rotate(-90)"  style="font-size:10" >4000</text>
<polyline points="34.17 , 318.85 560.66 , 318.85 560.66 , 34.17 34.17 , 34.17 34.17 , 318.85 " style="stroke-width:1;stroke:#000000;fill:#000000;stroke-opacity:1.000000;fill-opacity:0.000000"/>
<text transform="translate(285.58,352.18)"  style="font-size:10" >Time</text>
<text transform="translate(9.17,204.98) rotate(-90)"  style="font-size:10" >cost ($USD)</text>
<text transform="translate(155.04,17.08)"  style="font-size:12" >Utilization: light Region: us-west Instance: m1.xlarge</text>
<text transform="translate(145.80,27.08)"  style="font-size:12" >year3 term is cheaper than on-demand after 127 days of usage</text>
<text transform="translate(83.55,304.14)"  style="font-size:10" >on-demand=$0.52/hour</text>
<line x1="34.17" y1="269.32" x2="560.66" y2="122.05" style="stroke-width:1;stroke:#00FF00;fill:#000000;stroke-opacity:1.000000;fill-opacity:0.000000"/>
<text transform="translate(68.29,259.70)"  style="font-size:10" >Reserved=$768+$0.27/hour</text>
<circle cx="223.94" cy="216.24" r="2.34" style="stroke-width:1;stroke:#000000;fill:#FFFFFF;stroke-opacity:1.000000;fill-opacity:0.000000" />
<text transform="translate(204.38,224.57)"  style="font-size:10" >127 days</text>
</svg>
